<?xml version="1.0" standalone="no"?>
<!DOCTYPE svg PUBLIC "-//W3C//DTD SVG 20010904//EN"
 "http://www.w3.org/TR/2001/REC-SVG-20010904/DTD/svg10.dtd">
<svg version="1.0" xmlns="http://www.w3.org/2000/svg"
 width="120.000000pt" height="157.000000pt" viewBox="0 0 120.000000 157.000000"
 preserveAspectRatio="xMidYMid meet">

<g transform="translate(0.000000,157.000000) scale(0.100000,-0.100000)"
fill="#000000" stroke="none">
<path d="M509 1543 c-45 -23 -59 -37 -81 -82 -32 -63 -35 -110 -9 -166 30 -68
113 -125 181 -125 68 0 151 57 181 125 26 56 23 103 -8 166 -23 45 -37 59 -82
82 -30 15 -71 27 -91 27 -20 0 -61 -12 -91 -27z"/>
<path d="M135 1038 c-53 -19 -87 -50 -111 -102 -23 -49 -24 -60 -24 -288 l0
-238 460 0 460 0 0 -60 0 -60 -460 0 -460 0 0 -57 c0 -70 34 -150 76 -180 59
-42 89 -44 544 -41 419 3 437 4 475 24 22 11 54 40 70 63 l30 43 3 254 3 254
-461 0 -460 0 0 60 0 60 461 0 462 0 -5 76 c-4 62 -10 82 -34 116 -16 23 -47
51 -69 62 -39 20 -55 21 -485 23 -298 1 -455 -2 -475 -9z"/>
</g>
</svg>
